<?xml version="1.0" standalone="no"?>
<!DOCTYPE svg PUBLIC "-//W3C//DTD SVG 20010904//EN"
 "http://www.w3.org/TR/2001/REC-SVG-20010904/DTD/svg10.dtd">
<svg version="1.0" xmlns="http://www.w3.org/2000/svg"
 width="372.000000pt" height="372.000000pt" viewBox="0 0 372.000000 372.000000"
 preserveAspectRatio="xMidYMid meet">
<metadata>
Created by potrace 1.11, written by Peter Selinger 2001-2013
</metadata>
<g transform="translate(0.000000,372.000000) scale(0.100000,-0.100000)"
fill="#000000" stroke="none">
<path d="M0 1860 l0 -1860 1860 0 1860 0 0 1860 0 1860 -1860 0 -1860 0 0
-1860z m1219 1030 c251 -61 464 -224 596 -455 l44 -77 22 43 c66 132 200 281
324 364 75 49 188 99 291 126 114 31 315 31 438 1 106 -27 235 -85 319 -146
72 -51 189 -170 236 -238 49 -72 108 -204 133 -293 31 -115 31 -345 0 -460
-44 -162 -134 -315 -253 -432 -86 -84 -147 -127 -255 -179 -137 -66 -240 -88
-410 -89 -168 0 -179 -5 -186 -86 -6 -63 -48 -124 -103 -153 -39 -20 -55 -21
-543 -24 -350 -2 -516 1 -545 9 -76 20 -146 113 -147 194 0 12 -14 29 -33 41
-28 18 -43 21 -103 17 -226 -17 -495 81 -673 244 -459 419 -385 1165 149 1487
89 54 241 110 340 125 92 14 261 5 359 -19z"/>
<path d="M845 2839 c-330 -61 -599 -311 -687 -638 -27 -100 -30 -313 -5 -414
73 -295 294 -534 577 -625 100 -32 183 -44 296 -41 l103 3 60 -38 c60 -37 61
-38 61 -82 0 -56 22 -99 63 -124 31 -19 54 -20 544 -20 l512 0 35 31 c38 33
58 85 50 129 -5 23 1 33 41 66 l47 38 167 1 c140 1 177 5 239 23 318 96 557
356 618 670 85 442 -185 879 -618 1002 -112 32 -288 37 -409 12 -196 -41 -385
-157 -504 -312 -80 -104 -147 -248 -170 -365 l-7 -40 -19 78 c-77 320 -342
573 -672 641 -83 17 -241 19 -322 5z m297 -73 c154 -30 283 -95 396 -200 167
-156 252 -352 252 -581 0 -171 -46 -319 -139 -452 -288 -410 -866 -460 -1217
-105 -123 124 -200 284 -225 466 -31 224 56 477 222 645 191 193 453 276 711
227z m1786 -15 c347 -100 582 -409 582 -766 0 -455 -383 -818 -835 -792 -124
7 -195 26 -310 82 -192 93 -337 260 -403 465 -56 173 -56 317 0 490 30 93 62
155 124 237 115 151 278 254 469 297 96 21 274 15 373 -13z m-1036 -1031 c55
-179 184 -349 344 -455 58 -39 194 -105 215 -105 7 0 0 -13 -16 -30 -26 -28
-29 -28 -56 -15 -42 22 -1010 22 -1052 0 -27 -14 -31 -13 -63 9 l-34 23 69 26
c216 79 411 266 499 478 17 41 36 103 44 138 13 64 13 64 21 30 5 -19 18 -63
29 -99z m466 -676 c27 -18 30 -69 5 -96 -15 -17 -44 -18 -510 -18 -480 0 -494
1 -513 20 -11 11 -20 31 -20 45 0 14 9 34 20 45 19 19 33 20 508 20 425 0 490
-2 510 -16z"/>
<path d="M843 2730 c-12 -5 -29 -20 -38 -33 -15 -23 -14 -37 11 -193 35 -218
32 -214 181 -214 115 1 135 7 151 51 17 44 55 317 48 343 -11 45 -50 56 -198
55 -73 0 -143 -4 -155 -9z m287 -87 c0 -34 -15 -38 -137 -38 l-121 0 -4 27 -5
28 134 0 c120 0 133 -2 133 -17z m-25 -115 c2 -2 -1 -40 -8 -83 l-12 -80 -86
-3 -87 -3 -11 64 c-16 92 -15 105 12 111 24 5 186 1 192 -6z"/>
<path d="M960 2262 c0 -4 -22 -15 -50 -25 -27 -10 -62 -29 -78 -42 -17 -14
-36 -25 -44 -25 -15 0 -51 -54 -42 -63 3 -2 0 -31 -7 -63 -9 -44 -9 -72 -1
-109 7 -31 7 -51 1 -53 -12 -5 22 -62 38 -62 6 0 25 -12 40 -26 35 -32 96 -64
123 -64 11 0 23 -7 26 -15 8 -20 74 -21 74 -1 0 8 15 17 35 20 19 4 55 23 80
42 25 19 50 32 55 29 11 -7 34 32 38 65 2 14 5 75 6 135 2 83 -1 116 -12 133
-8 12 -17 20 -20 18 -3 -3 -21 8 -40 26 -38 33 -106 67 -134 68 -10 0 -18 5
-18 10 0 6 -16 10 -35 10 -19 0 -35 -3 -35 -8z m148 -114 c104 -69 109 -236 9
-312 -82 -62 -180 -56 -253 18 -73 72 -80 172 -17 255 57 74 180 92 261 39z"/>
<path d="M930 2128 c-57 -30 -82 -65 -88 -126 -6 -63 24 -120 78 -151 138 -77
290 69 218 209 -25 48 -89 90 -138 90 -14 0 -46 -10 -70 -22z m104 -62 c86
-36 57 -166 -37 -166 -38 0 -87 49 -87 87 0 34 24 71 54 83 29 12 32 12 70 -4z"/>
<path d="M954 2015 c-33 -50 20 -104 71 -71 27 18 34 63 13 84 -21 21 -66 14
-84 -13z"/>
<path d="M636 2214 c-45 -45 17 -114 70 -79 26 17 33 62 12 83 -17 17 -64 15
-82 -4z"/>
<path d="M1287 2212 c-33 -36 -8 -92 40 -92 25 0 53 30 53 57 0 46 -62 69 -93
35z"/>
<path d="M451 1906 c-157 -54 -181 -69 -181 -115 0 -28 124 -270 148 -288 39
-31 74 -16 210 85 169 125 169 126 111 244 -46 94 -77 128 -113 127 -11 0 -90
-24 -175 -53z m214 -86 c19 -38 35 -74 35 -79 0 -10 -105 -91 -119 -91 -20 0
-112 172 -99 186 4 3 107 41 145 53 2 1 19 -30 38 -69z m-237 -59 c11 -27 36
-75 57 -106 l36 -57 -23 -17 c-13 -9 -27 -16 -32 -16 -5 0 -36 51 -69 113
l-59 112 24 9 c39 16 45 13 66 -38z"/>
<path d="M1316 1918 c-13 -13 -45 -59 -71 -104 -36 -63 -45 -87 -40 -107 5
-18 52 -65 137 -137 107 -90 136 -110 162 -110 18 0 39 6 48 13 9 6 49 66 89
132 77 126 86 162 53 195 -22 22 -303 140 -333 140 -11 0 -31 -10 -45 -22z
m172 -99 c22 -8 22 -10 7 -46 -15 -36 -81 -139 -94 -147 -7 -5 -114 81 -119
95 -2 4 15 40 38 78 l42 70 51 -21 c29 -11 62 -24 75 -29z m121 -50 c18 -6 31
-17 29 -23 -5 -19 -122 -216 -129 -216 -4 0 -18 9 -33 21 l-26 20 35 46 c19
25 47 72 63 104 15 32 27 58 28 58 1 1 15 -4 33 -10z"/>
<path d="M978 1659 c-26 -15 -24 -75 3 -89 52 -29 107 26 75 75 -17 26 -48 32
-78 14z"/>
<path d="M2440 2666 c-77 -32 -183 -100 -219 -142 -24 -26 -31 -44 -31 -75 0
-73 19 -93 150 -159 133 -67 164 -72 225 -37 61 34 73 69 77 222 3 146 -5 170
-67 199 -44 21 -69 20 -135 -8z m116 -72 c18 -18 24 -32 20 -47 -3 -12 -6 -31
-6 -43 0 -15 -14 -26 -56 -43 -30 -13 -78 -41 -106 -61 l-50 -39 -45 22 c-46
23 -64 56 -46 86 24 39 209 148 256 151 4 0 19 -12 33 -26z m14 -208 c0 -59
-57 -98 -110 -76 -37 15 -33 22 33 60 58 33 77 37 77 16z"/>
<path d="M2853 2671 c-61 -39 -67 -56 -60 -206 6 -152 16 -180 77 -214 59 -33
98 -27 212 30 131 66 158 94 158 162 0 48 -3 53 -52 102 -60 57 -202 134 -263
141 -29 4 -49 0 -72 -15z m162 -96 c39 -19 89 -50 113 -71 36 -30 43 -42 40
-68 -2 -24 -11 -35 -45 -54 l-42 -23 -64 44 c-35 25 -85 52 -111 62 l-46 18 0
53 c0 43 4 56 22 68 26 19 40 16 133 -29z m-87 -199 c65 -33 80 -51 53 -65
-48 -26 -111 8 -111 60 0 16 2 29 5 29 3 0 27 -11 53 -24z"/>
<path d="M2675 2380 c-23 -25 -13 -67 20 -82 52 -23 100 46 59 86 -21 22 -57
20 -79 -4z"/>
<path d="M2680 2252 c0 -4 -21 -15 -48 -24 -26 -10 -66 -33 -88 -52 -23 -20
-44 -33 -47 -30 -16 17 -31 -51 -33 -151 -3 -106 8 -169 28 -163 5 2 27 -13
49 -34 21 -20 61 -45 89 -55 27 -10 50 -21 50 -25 0 -5 16 -8 35 -8 19 0 35 3
35 8 0 4 23 15 51 25 28 10 67 34 88 52 21 19 40 32 43 30 3 -3 12 5 20 17 11
17 15 54 16 133 1 107 -10 165 -31 165 -5 0 -27 15 -48 34 -20 19 -60 43 -88
53 -28 10 -51 21 -51 25 0 5 -16 8 -35 8 -19 0 -35 -3 -35 -8z m107 -97 c72
-30 113 -93 113 -170 0 -194 -265 -255 -350 -80 -74 152 81 315 237 250z"/>
<path d="M2655 2126 c-93 -40 -122 -160 -58 -237 121 -143 339 2 254 169 -35
68 -125 99 -196 68z m116 -85 c17 -18 29 -40 29 -56 0 -34 -50 -85 -84 -85
-72 0 -108 99 -52 146 37 32 71 30 107 -5z"/>
<path d="M2680 2020 c-11 -11 -20 -27 -20 -35 0 -21 36 -55 58 -55 24 0 52 31
52 57 0 23 -30 53 -53 53 -9 0 -26 -9 -37 -20z"/>
<path d="M2052 2210 c-53 -33 -66 -76 -66 -225 0 -149 13 -192 66 -225 59 -36
95 -28 210 48 137 91 143 99 143 177 0 78 -6 86 -143 177 -115 76 -151 84
-210 48z m117 -73 l34 -23 1 -129 1 -128 -37 -25 c-44 -29 -84 -24 -98 12 -16
43 -22 160 -11 226 15 92 46 111 110 67z m150 -103 c12 -15 21 -38 21 -51 0
-27 -45 -77 -60 -68 -6 3 -10 34 -10 69 0 84 12 96 49 50z"/>
<path d="M3162 2154 c-126 -83 -149 -114 -139 -187 8 -58 30 -83 140 -154 117
-76 162 -87 214 -54 58 37 68 69 68 226 0 157 -10 190 -68 225 -58 36 -91 28
-215 -56z m187 -13 c12 -12 22 -41 27 -77 8 -69 0 -194 -15 -223 -18 -33 -54
-36 -96 -9 l-38 24 0 129 0 129 34 23 c42 27 64 28 88 4z m-189 -156 c0 -82
-7 -89 -47 -49 -20 20 -24 31 -19 57 6 30 37 67 57 67 5 0 9 -34 9 -75z"/>
<path d="M2996 1854 c-22 -21 -20 -57 4 -79 46 -41 116 29 75 75 -22 24 -58
26 -79 4z"/>
<path d="M2362 1848 c-21 -21 -14 -66 12 -83 51 -34 111 30 71 75 -20 22 -65
26 -83 8z"/>
<path d="M2342 1682 c-134 -69 -158 -96 -149 -168 6 -54 33 -86 122 -144 165
-108 273 -113 319 -15 14 29 15 53 8 163 -10 145 -21 171 -83 203 -60 30 -93
24 -217 -39z m187 -27 c19 -9 30 -25 35 -46 3 -18 4 -34 2 -37 -8 -7 -41 7
-91 39 -46 29 -48 32 -30 45 24 18 49 18 84 -1z m-113 -91 c23 -17 67 -41 97
-54 50 -21 55 -26 61 -61 7 -46 -6 -85 -32 -93 -37 -12 -155 43 -239 111 -63
51 -57 85 22 126 33 17 32 17 91 -29z"/>
<path d="M2864 1715 c-58 -34 -66 -60 -72 -215 -4 -135 -4 -136 22 -166 33
-40 76 -58 120 -50 63 12 197 87 253 141 50 48 53 54 53 102 0 71 -23 95 -153
159 -125 61 -161 66 -223 29z m117 -56 c17 -9 18 -13 8 -25 -12 -14 -101 -64
-114 -64 -3 0 -5 13 -5 29 0 52 63 86 111 60z m144 -72 c47 -26 58 -66 28 -99
-28 -33 -130 -95 -190 -118 -51 -19 -57 -19 -79 -5 -36 24 -29 49 29 103 61
58 160 142 167 142 3 0 23 -10 45 -23z"/>
<path d="M1822 1549 c-48 -96 -146 -215 -236 -287 l-77 -62 348 0 348 1 -35
27 c-115 88 -201 187 -274 315 l-41 72 -33 -66z"/>
<path d="M1540 995 l0 -35 315 0 315 0 0 35 0 35 -315 0 -315 0 0 -35z"/>
</g>
</svg>
